<?xml version="1.0" standalone="no"?>
<!DOCTYPE svg PUBLIC "-//W3C//DTD SVG 20010904//EN"
 "http://www.w3.org/TR/2001/REC-SVG-20010904/DTD/svg10.dtd">
<svg version="1.0" xmlns="http://www.w3.org/2000/svg"
 width="700.000000pt" height="700.000000pt" viewBox="0 0 700.000000 700.000000"
 preserveAspectRatio="xMidYMid meet">
<metadata>
Created by potrace 1.14, written by Peter Selinger 2001-2017
</metadata>
<g transform="translate(0.000000,700.000000) scale(0.100000,-0.100000)"
fill="#000000" stroke="none">
<path d="M3278 6995 c-1 -1 -42 -5 -89 -9 -47 -4 -95 -8 -106 -10 -11 -3 -44
-7 -74 -11 -102 -12 -217 -34 -344 -67 -44 -11 -89 -22 -101 -24 -91 -17 -415
-140 -579 -220 -180 -87 -448 -247 -555 -331 -8 -6 -51 -40 -95 -74 -342 -266
-650 -623 -875 -1014 -47 -83 -170 -327 -170 -340 0 -3 -9 -24 -20 -48 -57
-123 -157 -435 -186 -582 -2 -11 -10 -54 -19 -95 -29 -147 -36 -199 -52 -370
-15 -160 -7 -607 12 -708 1 -9 6 -42 9 -73 4 -31 9 -67 12 -80 2 -13 7 -42 9
-64 3 -22 8 -48 11 -57 3 -9 7 -25 9 -36 64 -332 226 -752 409 -1056 36 -60
66 -111 66 -113 0 -2 4 -9 10 -16 5 -7 46 -64 91 -126 190 -269 413 -504 689
-725 9 -6 42 -32 75 -56 33 -25 62 -48 63 -52 2 -5 8 -8 14 -8 6 0 27 -12 47
-28 20 -15 43 -31 53 -37 9 -5 65 -39 125 -74 231 -138 508 -262 751 -335 67
-21 130 -39 140 -41 9 -2 55 -12 102 -24 109 -26 200 -43 299 -57 25 -3 57 -7
70 -10 197 -30 696 -25 908 10 21 4 54 9 73 11 19 3 46 7 60 10 14 3 41 8 60
11 19 4 71 15 115 26 44 10 87 21 96 23 225 51 643 223 853 350 32 19 62 35
67 35 5 0 9 5 9 10 0 6 5 10 10 10 15 0 220 141 330 227 152 118 324 280 450
422 36 41 70 79 76 85 6 6 48 61 94 121 150 197 277 405 383 628 26 53 47 99
47 102 0 2 11 28 24 57 57 127 151 421 182 573 17 81 54 301 59 350 4 33 9 71
11 85 9 47 11 525 4 605 -15 157 -21 210 -25 225 -2 8 -7 35 -10 60 -15 117
-78 375 -125 520 -192 580 -518 1086 -966 1500 -128 118 -205 178 -444 347
-50 36 -208 127 -315 183 -370 191 -803 323 -1200 366 -27 3 -63 8 -80 10 -34
5 -541 14 -547 9z"/>
</g>
</svg>
